# xmcd
#
# Track frame offsets: 
#        150
#        9655
#        18212
#        23670
#        32203
#        47190
#        53929
#        63949
#        78849
#        94902
#
# Disc length: 1435 seconds
#
# Revision: 0
# Processed by: cddbd v1.5.2PL0 Copyright (c) Steve Scherf et al.
# Submitted via: ExactAudioCopy v0.99pb1
#
DISCID=7305990a
DTITLE=Cantar e Brincar - Cantar e Brincar
DYEAR=2008
DGENRE=A Cappella
TTITLE0=O cravo
TTITLE1=Fui morar numa casinha
TTITLE2=Piuí-piuí
TTITLE3=Com sabão
TTITLE4=Dó da minha viola
TTITLE5=Como vai amiguinho
TTITLE6=Jacaré foi a cidade
TTITLE7=Lutar em Jericó
TTITLE8=1.2 Feijão com arroz
TTITLE9=Estou presa
EXTD=
EXTT0=
EXTT1=
EXTT2=
EXTT3=
EXTT4=
EXTT5=
EXTT6=
EXTT7=
EXTT8=
EXTT9=
PLAYORDER=
